<svg width="108" height="108" viewBox="0 0 108 108" fill="none" xmlns="http://www.w3.org/2000/svg">
  <mask id="mask0_23265_633" style="mask-type:luminance" maskUnits="userSpaceOnUse" x="0" y="0" width="108"
    height="108">
    <circle cx="54" cy="54" r="54" fill="white" />
  </mask>
  <g mask="url(#mask0_23265_633)">
    <rect width="108" height="108" fill="#FEF3FF" />
    <path
      d="M36.8246 80.0904C39.0086 83.5621 41.2314 87.0818 44.1843 89.8385C47.1372 92.6021 50.9625 94.5545 54.8847 94.3001C58.3287 94.0733 61.5207 92.1621 64.0407 89.6667C66.5607 87.1712 68.5186 84.0983 70.4442 81.0529C75.6522 72.8309 80.8667 64.6089 86.0747 56.3801C88.5495 52.4753 91.0889 48.3987 91.7738 43.7447C92.6009 38.1213 90.3717 32.3948 86.4172 28.655C82.2818 24.7434 75.5811 25.0596 70.5475 26.1321C65.0294 27.3076 59.6339 29.5212 54.0059 29.5143C49.1856 29.5143 44.5268 27.8782 39.8357 26.6889C35.151 25.5065 30.1175 24.7778 25.5943 26.5377C19.9792 28.7169 15.9472 34.9109 16.0571 41.2698C16.1605 47.0719 22.3377 57.0813 22.3377 57.0813C22.3377 57.0813 31.9966 72.4201 36.8246 80.0904Z"
      fill="#B28CFF" />
    <path
      d="M51.6375 63.2794V48.1669C51.6375 47.5169 51.8687 46.9607 52.3312 46.4982C52.7937 46.0357 53.35 45.8044 54 45.8044C54.65 45.8044 55.2062 46.0357 55.6687 46.4982C56.1312 46.9607 56.3625 47.5169 56.3625 48.1669V63.2794L62.25 57.3919C62.725 56.9169 63.2875 56.6794 63.9375 56.6794C64.5875 56.6794 65.15 56.9169 65.625 57.3919C66.075 57.8669 66.3 58.4294 66.3 59.0794C66.3 59.7294 66.0625 60.2919 65.5875 60.7669L55.6875 70.6669C55.4625 70.8919 55.2 71.0669 54.9 71.1919C54.6 71.3169 54.3 71.3794 54 71.3794C53.7 71.3794 53.4 71.3169 53.1 71.1919C52.8 71.0669 52.5375 70.8919 52.3125 70.6669L42.375 60.7294C41.9 60.2544 41.6625 59.6982 41.6625 59.0607C41.6625 58.4232 41.9 57.8669 42.375 57.3919C42.85 56.9169 43.4125 56.6794 44.0625 56.6794C44.7125 56.6794 45.275 56.9169 45.75 57.3919L51.6375 63.2794Z"
      fill="#390083" />
  </g>
</svg>
