<svg width="432" height="436" viewBox="0 0 432 436" fill="none" xmlns="http://www.w3.org/2000/svg">
  <path
    d="M147.298 320.362C156.034 334.248 164.925 348.327 176.737 359.354C188.549 370.409 203.85 378.218 219.539 377.201C233.315 376.293 246.083 368.649 256.163 358.667C266.243 348.685 274.074 336.393 281.777 324.212C302.609 291.324 323.467 258.436 344.299 225.521C354.198 209.902 364.356 193.595 367.095 174.979C370.404 152.485 361.487 129.579 345.669 114.62C329.127 98.9737 302.324 100.239 282.19 104.528C260.117 109.231 238.536 118.085 216.024 118.057C196.742 118.057 178.107 111.513 159.343 106.756C140.604 102.026 120.47 99.1112 102.377 106.151C79.9169 114.868 63.7889 139.644 64.2283 165.079C64.6418 188.288 89.3508 228.325 89.3508 228.325C89.3508 228.325 127.986 289.68 147.298 320.362Z"
    fill="#B28CFF" />
  <path
    d="M206.55 253.118V192.668C206.55 190.068 207.475 187.843 209.325 185.993C211.175 184.143 213.4 183.218 216 183.218C218.6 183.218 220.825 184.143 222.675 185.993C224.525 187.843 225.45 190.068 225.45 192.668V253.118L249 229.568C250.9 227.668 253.15 226.718 255.75 226.718C258.35 226.718 260.6 227.668 262.5 229.568C264.3 231.468 265.2 233.718 265.2 236.318C265.2 238.918 264.25 241.168 262.35 243.068L222.75 282.668C221.85 283.568 220.8 284.268 219.6 284.768C218.4 285.268 217.2 285.518 216 285.518C214.8 285.518 213.6 285.268 212.4 284.768C211.2 284.268 210.15 283.568 209.25 282.668L169.5 242.918C167.6 241.018 166.65 238.793 166.65 236.243C166.65 233.693 167.6 231.468 169.5 229.568C171.4 227.668 173.65 226.718 176.25 226.718C178.85 226.718 181.1 227.668 183 229.568L206.55 253.118Z"
    fill="#390083" />
</svg>
