<svg width="108" height="108" viewBox="0 0 108 108" fill="none" xmlns="http://www.w3.org/2000/svg">
  <path fill-rule="evenodd" clip-rule="evenodd"
    d="M67.8458 29.088C72.0576 28.193 77.6644 27.9289 81.1246 31.1935C84.4335 34.3147 86.2986 39.0942 85.6066 43.7875C85.0335 47.6718 82.9088 51.0742 80.838 54.3332C76.4803 61.201 72.1171 68.0631 67.7594 74.9252C66.1483 77.4669 64.51 80.0315 62.4015 82.1142C60.2929 84.1969 57.622 85.792 54.7404 85.9813C51.4586 86.1936 48.2578 84.5642 45.787 82.2577C43.3162 79.957 41.4562 77.0194 39.6288 74.122C35.589 67.7203 27.507 54.9184 27.507 54.9184C27.4964 54.9013 22.3383 46.5596 22.2518 41.7221C22.1599 36.4148 25.5337 31.2452 30.2321 29.4264C34.0167 27.9576 38.2285 28.5658 42.1483 29.5526C46.0735 30.5452 49.9717 31.9108 54.005 31.9108C58.7141 31.9165 63.2286 30.0692 67.8458 29.088ZM53.9999 43.6999C53.4221 43.6999 52.9276 43.9055 52.5165 44.3166C52.1054 44.7277 51.9 45.2222 51.9 45.8V59.2333L46.6666 53.9999C46.2444 53.5777 45.7444 53.3666 45.1666 53.3666C44.5889 53.3666 44.0888 53.5777 43.6666 53.9999C43.2444 54.4221 43.0333 54.9166 43.0333 55.4833C43.0333 56.05 43.2444 56.5445 43.6666 56.9667L52.4999 65.7999C52.6998 65.9999 52.9332 66.1554 53.1998 66.2665C53.4665 66.3776 53.7332 66.4332 53.9999 66.4333C54.2665 66.4333 54.5333 66.3776 54.7999 66.2665C55.0666 66.1554 55.2999 65.9999 55.4999 65.7999L64.2999 56.9999C64.7221 56.5777 64.9332 56.0777 64.9332 55.4999C64.9332 54.9222 64.7333 54.4221 64.3334 53.9999C63.9112 53.5777 63.4111 53.3666 62.8334 53.3666C62.2556 53.3666 61.7556 53.5777 61.3334 53.9999L56.1 59.2333V45.8C56.1 45.2222 55.8944 44.7277 55.4833 44.3166C55.0722 43.9055 54.5776 43.6999 53.9999 43.6999Z"
    fill="#005320" />
</svg>
