<svg width="108" height="108" viewBox="0 0 108 108" fill="none" xmlns="http://www.w3.org/2000/svg">
<path fill-rule="evenodd" clip-rule="evenodd" d="M67.4098 29.0726C71.4889 28.2009 76.9191 27.9439 80.2703 31.1234C83.4749 34.1632 85.2814 38.8178 84.6112 43.3887C84.0561 47.1717 81.9983 50.4854 79.9928 53.6593C75.7723 60.3479 71.5465 67.031 67.326 73.714C65.7656 76.1894 64.1791 78.6873 62.1369 80.7157C60.0947 82.744 57.508 84.2975 54.717 84.4819C51.5386 84.6886 48.4385 83.1018 46.0455 80.8555C43.6525 78.6147 41.8512 75.7536 40.0813 72.9317C36.1688 66.697 28.3415 54.2292 28.3415 54.2292C28.3308 54.2119 23.3355 46.0882 23.2518 41.3771C23.1628 36.2083 26.4304 31.1737 30.9807 29.4023C34.6461 27.9718 38.7253 28.5641 42.5216 29.5252C46.3232 30.4919 50.0985 31.8218 54.0048 31.8218C58.5657 31.8274 62.938 30.0282 67.4098 29.0726ZM53.9999 43.4268C53.3937 43.4268 52.875 43.6435 52.4436 44.0769C52.0122 44.5103 51.7964 45.0317 51.7964 45.6408V59.8034L46.3052 54.2861C45.8622 53.8409 45.3375 53.6183 44.7313 53.6183C44.125 53.6183 43.6003 53.8409 43.1573 54.2861C42.7143 54.7312 42.4927 55.2524 42.4927 55.8498C42.4927 56.4473 42.7143 56.9686 43.1573 57.4138L52.426 66.7268C52.6358 66.9377 52.8807 67.1016 53.1605 67.2188C53.4403 67.3359 53.7201 67.3944 53.9999 67.3944C54.2797 67.3944 54.5596 67.3359 54.8394 67.2188C55.1191 67.1016 55.364 66.9376 55.5739 66.7268L64.8077 57.449C65.2507 57.0038 65.4723 56.4766 65.4723 55.8675C65.4723 55.2584 65.2624 54.7312 64.8428 54.2861C64.3997 53.8409 63.8751 53.6183 63.2688 53.6183C62.6625 53.6183 62.1379 53.8409 61.6949 54.2861L56.2035 59.8034V45.6408C56.2035 45.0317 55.9878 44.5103 55.5565 44.0769C55.1251 43.6434 54.6062 43.4268 53.9999 43.4268Z" fill="#005320"/>
</svg>
