<svg width="108" height="108" viewBox="0 0 108 108" fill="none" xmlns="http://www.w3.org/2000/svg">
<path d="M65.0298 31.4686C68.381 30.7559 72.8429 30.5456 75.5962 33.1454C78.2287 35.6308 79.7131 39.4365 79.1626 43.1737C78.7066 46.2669 77.0153 48.9769 75.3677 51.5721C71.9003 57.0412 68.4288 62.5061 64.9614 67.9706C63.6795 69.9946 62.3755 72.0367 60.6978 73.6952C59.02 75.3537 56.8949 76.6235 54.6021 76.7743C51.9908 76.9433 49.444 75.6462 47.478 73.8094C45.512 71.9773 44.0317 69.6383 42.5776 67.3309C39.3664 62.238 32.9456 52.0578 32.9331 52.038C32.9331 52.038 28.8203 45.3854 28.7515 41.5292C28.6784 37.3029 31.3628 33.1866 35.1011 31.7382C38.1124 30.5685 41.4636 31.0529 44.5825 31.8387C47.7058 32.6292 50.8078 33.7167 54.0171 33.7167C57.764 33.7212 61.356 32.25 65.0298 31.4686ZM54.0132 43.7675C53.5823 43.7675 53.2134 43.9208 52.9067 44.2274C52.6001 44.534 52.4468 44.903 52.4468 45.3339V55.3534L48.5435 51.4501C48.2285 51.1352 47.8552 50.9774 47.4243 50.9774C46.9936 50.9775 46.6209 51.1353 46.3062 51.4501C45.9912 51.765 45.8335 52.1339 45.8335 52.5565C45.8335 52.9791 45.9913 53.3481 46.3062 53.663L52.894 60.2509C53.0432 60.4 53.2176 60.5166 53.4165 60.5995C53.6154 60.6823 53.8143 60.7235 54.0132 60.7235C54.212 60.7235 54.411 60.6823 54.6099 60.5995C54.8088 60.5166 54.9832 60.4 55.1323 60.2509L61.6958 53.6874C62.0104 53.3726 62.1674 52.9999 62.1675 52.5692C62.1675 52.1383 62.0186 51.765 61.7202 51.4501C61.4053 51.1352 61.032 50.9774 60.6011 50.9774C60.1704 50.9775 59.7977 51.1353 59.4829 51.4501L55.5796 55.3534V45.3339C55.5796 44.903 55.4262 44.534 55.1196 44.2274C54.813 43.9208 54.4441 43.7675 54.0132 43.7675Z" fill="black"/>
</svg>
