<svg width="108" height="108" viewBox="0 0 108 108" fill="none" xmlns="http://www.w3.org/2000/svg">
  <path
    d="M37.4191 78.4818C39.5275 81.8275 41.6734 85.2195 44.5241 87.8762C47.3748 90.5395 51.0676 92.421 54.854 92.1759C58.1788 91.9573 61.2604 90.1155 63.6931 87.7106C66.1259 85.3057 68.016 82.3443 69.8749 79.4093C74.9026 71.4857 79.9366 63.5621 84.9644 55.6319C87.3535 51.8689 89.805 47.9402 90.4662 43.455C91.2646 38.0357 89.1126 32.517 85.295 28.9129C81.3027 25.1433 74.834 25.448 69.9747 26.4815C64.6475 27.6144 59.4389 29.7477 54.0057 29.7411C49.3522 29.7411 44.8547 28.1643 40.326 27.0182C35.8035 25.8787 30.9442 25.1764 26.5777 26.8724C21.1569 28.9726 17.2645 34.9418 17.3705 41.07C17.4703 46.6615 23.4338 56.3077 23.4338 56.3077C23.4338 56.3077 32.7583 71.0898 37.4191 78.4818Z"
    fill="#B28CFF" />
  <path
    d="M51.3749 62.9166V46.125C51.3749 45.4027 51.6318 44.7847 52.1457 44.2708C52.6596 43.7569 53.2777 43.5 53.9999 43.5C54.7221 43.5 55.3402 43.7569 55.8541 44.2708C56.368 44.7847 56.6249 45.4027 56.6249 46.125V62.9166L63.1666 56.375C63.6943 55.8472 64.3193 55.5833 65.0416 55.5833C65.7638 55.5833 66.3888 55.8472 66.9166 56.375C67.4166 56.9027 67.6666 57.5277 67.6666 58.25C67.6666 58.9722 67.4027 59.5972 66.8749 60.125L55.8749 71.125C55.6249 71.375 55.3332 71.5694 54.9999 71.7083C54.6666 71.8472 54.3332 71.9166 53.9999 71.9166C53.6666 71.9166 53.3332 71.8472 52.9999 71.7083C52.6666 71.5694 52.3749 71.375 52.1249 71.125L41.0832 60.0833C40.5554 59.5555 40.2916 58.9375 40.2916 58.2291C40.2916 57.5208 40.5554 56.9027 41.0832 56.375C41.611 55.8472 42.236 55.5833 42.9582 55.5833C43.6804 55.5833 44.3054 55.8472 44.8332 56.375L51.3749 62.9166Z"
    fill="#390083" />
</svg>
