<svg width="108" height="108" viewBox="0 0 108 108" fill="none" xmlns="http://www.w3.org/2000/svg">
  <path
    d="M39.6287 74.1219C41.4562 77.0194 43.316 79.957 45.7869 82.2577C48.2577 84.5642 51.4584 86.1937 54.7402 85.9814C57.622 85.7921 60.2928 84.197 62.4014 82.1143C64.51 80.0316 66.1482 77.4669 67.7594 74.9252C72.1171 68.0631 76.4803 61.201 80.838 54.3331C82.9088 51.0742 85.0336 47.6719 85.6067 43.7875C86.2987 39.0942 84.4334 34.3149 81.1246 31.1937C77.6643 27.929 72.0577 28.1929 67.8459 29.088C63.2286 30.0691 58.7141 31.9166 54.0049 31.9108C49.9716 31.9108 46.0734 30.5453 42.1482 29.5527C38.2284 28.5659 34.0166 27.9577 30.232 29.4265C25.5336 31.2453 22.1599 36.4148 22.2518 41.722C22.3383 46.5645 27.5071 54.9184 27.5071 54.9184C27.5071 54.9184 35.589 67.7202 39.6287 74.1219Z"
    fill="#B28CFF" />
  <path
    d="M51.8999 59.2333V45.8C51.8999 45.2222 52.1055 44.7278 52.5166 44.3167C52.9277 43.9055 53.4222 43.7 53.9999 43.7C54.5777 43.7 55.0721 43.9055 55.4833 44.3167C55.8944 44.7278 56.0999 45.2222 56.0999 45.8V59.2333L61.3333 54C61.7555 53.5778 62.2555 53.3667 62.8333 53.3667C63.411 53.3667 63.911 53.5778 64.3333 54C64.7333 54.4222 64.9333 54.9222 64.9333 55.5C64.9333 56.0778 64.7222 56.5778 64.2999 57L55.4999 65.8C55.2999 66 55.0666 66.1555 54.7999 66.2667C54.5333 66.3778 54.2666 66.4333 53.9999 66.4333C53.7333 66.4333 53.4666 66.3778 53.1999 66.2667C52.9333 66.1555 52.6999 66 52.4999 65.8L43.6666 56.9667C43.2444 56.5444 43.0333 56.05 43.0333 55.4833C43.0333 54.9167 43.2444 54.4222 43.6666 54C44.0888 53.5778 44.5888 53.3667 45.1666 53.3667C45.7444 53.3667 46.2444 53.5778 46.6666 54L51.8999 59.2333Z"
    fill="#390083" />
</svg>
