<svg width="108" height="108" viewBox="0 0 108 108" fill="none" xmlns="http://www.w3.org/2000/svg">
<path d="M36.752 79.7656C38.9453 83.2458 41.1774 86.7743 44.1428 89.5379C47.1082 92.3083 50.9496 94.2655 54.8884 94.0105C58.3469 93.7831 61.5524 91.8672 64.0831 89.3656C66.6137 86.8639 68.5798 83.7834 70.5135 80.7304C75.7435 72.488 80.98 64.2456 86.21 55.9964C88.6953 52.082 91.2454 47.9952 91.9332 43.3296C92.7638 37.6923 90.5251 31.9516 86.5539 28.2025C82.4011 24.2812 75.6721 24.5982 70.6173 25.6733C65.0759 26.8518 59.6577 29.0709 54.0059 29.064C49.1652 29.064 44.4867 27.4238 39.7758 26.2315C35.0714 25.0462 30.0166 24.3156 25.4744 26.0799C19.8356 28.2645 15.7866 34.4739 15.8969 40.8486C16.0007 46.6651 22.204 56.6993 22.204 56.6993C22.204 56.6993 31.9037 72.0762 36.752 79.7656Z" fill="#AC8EFF"/>
<mask id="mask0_23254_210" style="mask-type:alpha" maskUnits="userSpaceOnUse" x="36" y="39" width="36" height="37">
<rect x="36" y="39.5" width="36" height="36" fill="#D9D9D9"/>
</mask>
<g mask="url(#mask0_23254_210)">
<path d="M51.6375 61.7V46.5875C51.6375 45.9375 51.8687 45.3812 52.3312 44.9187C52.7937 44.4562 53.35 44.225 54 44.225C54.65 44.225 55.2062 44.4562 55.6687 44.9187C56.1312 45.3812 56.3625 45.9375 56.3625 46.5875V61.7L62.25 55.8125C62.725 55.3375 63.2875 55.1 63.9375 55.1C64.5875 55.1 65.15 55.3375 65.625 55.8125C66.075 56.2875 66.3 56.85 66.3 57.5C66.3 58.15 66.0625 58.7125 65.5875 59.1875L55.6875 69.0875C55.4625 69.3125 55.2 69.4875 54.9 69.6125C54.6 69.7375 54.3 69.8 54 69.8C53.7 69.8 53.4 69.7375 53.1 69.6125C52.8 69.4875 52.5375 69.3125 52.3125 69.0875L42.375 59.15C41.9 58.675 41.6625 58.1187 41.6625 57.4812C41.6625 56.8437 41.9 56.2875 42.375 55.8125C42.85 55.3375 43.4125 55.1 44.0625 55.1C44.7125 55.1 45.275 55.3375 45.75 55.8125L51.6375 61.7Z" fill="#2A006F"/>
</g>
</svg>
