<svg width="108" height="108" viewBox="0 0 108 108" fill="none" xmlns="http://www.w3.org/2000/svg">
  <path
    d="M43.5039 69.9442C44.8386 72.0657 46.197 74.2167 48.0015 75.9013C49.8061 77.5902 52.1438 78.7833 54.5407 78.6279C56.6453 78.4892 58.596 77.3213 60.136 75.7963C61.676 74.2713 62.8725 72.3934 64.0492 70.5323C67.2319 65.5078 70.4186 60.4833 73.6012 55.4545C75.1136 53.0683 76.6655 50.577 77.084 47.7329C77.5895 44.2964 76.2272 40.7968 73.8105 38.5114C71.2833 36.121 67.1885 36.3142 64.1124 36.9696C60.7402 37.688 57.443 39.0408 54.0036 39.0366C51.0579 39.0366 48.2108 38.0367 45.3441 37.3099C42.4812 36.5873 39.4051 36.142 36.641 37.2175C33.2096 38.5492 30.7456 42.3344 30.8127 46.2205C30.8759 49.7662 34.6509 55.883 34.6509 55.883C34.6509 55.883 40.5535 65.2567 43.5039 69.9442Z"
    fill="#B28CFF" />
  <path
    d="M52.5563 59.6709V50.4354C52.5563 50.0382 52.6976 49.6983 52.9802 49.4157C53.2629 49.133 53.6028 48.9917 54 48.9917C54.3973 48.9917 54.7372 49.133 55.0198 49.4157C55.3025 49.6983 55.4438 50.0382 55.4438 50.4354V59.6709L59.0417 56.0729C59.332 55.7827 59.6757 55.6375 60.073 55.6375C60.4702 55.6375 60.8139 55.7827 61.1042 56.0729C61.3792 56.3632 61.5167 56.707 61.5167 57.1042C61.5167 57.5014 61.3716 57.8452 61.0813 58.1354L55.0313 64.1854C54.8938 64.3229 54.7334 64.4299 54.55 64.5063C54.3667 64.5827 54.1834 64.6209 54 64.6209C53.8167 64.6209 53.6334 64.5827 53.45 64.5063C53.2667 64.4299 53.1063 64.3229 52.9688 64.1854L46.8959 58.1125C46.6056 57.8223 46.4604 57.4823 46.4604 57.0927C46.4604 56.7032 46.6056 56.3632 46.8959 56.0729C47.1861 55.7827 47.5299 55.6375 47.9271 55.6375C48.3243 55.6375 48.6681 55.7827 48.9584 56.0729L52.5563 59.6709Z"
    fill="#390083" />
</svg>
