<svg width="108" height="108" viewBox="0 0 108 108" fill="none" xmlns="http://www.w3.org/2000/svg">
<path d="M37.4191 78.4819C39.5275 81.8275 41.6734 85.2196 44.5241 87.8762C47.3748 90.5395 51.0676 92.4211 54.8541 92.1759C58.1788 91.9573 61.2604 90.1155 63.6932 87.7106C66.1259 85.3057 68.016 82.3443 69.8749 79.4094C74.9027 71.4858 79.9366 63.5622 84.9644 55.632C87.3535 51.8689 89.805 47.9402 90.4662 43.455C91.2647 38.0357 89.1126 32.517 85.295 28.913C81.3027 25.1433 74.834 25.4481 69.9747 26.4816C64.6476 27.6145 59.4389 29.7477 54.0057 29.7411C49.3522 29.7411 44.8547 28.1643 40.326 27.0182C35.8035 25.8787 30.9442 25.1764 26.5777 26.8725C21.1569 28.9726 17.2645 34.9418 17.3705 41.07C17.4703 46.6616 23.4338 56.3077 23.4338 56.3077C23.4338 56.3077 32.7583 71.0899 37.4191 78.4819Z" fill="#B28CFF"/>
<mask id="mask0_23254_210" style="mask-type:alpha" maskUnits="userSpaceOnUse" x="34" y="38" width="40" height="41">
<rect x="34" y="38.25" width="40" height="40" fill="#D9D9D9"/>
</mask>
<g mask="url(#mask0_23254_210)">
<path d="M51.3748 62.9167V46.125C51.3748 45.4028 51.6318 44.7847 52.1457 44.2708C52.6596 43.7569 53.2776 43.5 53.9998 43.5C54.7221 43.5 55.3401 43.7569 55.854 44.2708C56.3679 44.7847 56.6248 45.4028 56.6248 46.125V62.9167L63.1665 56.375C63.6943 55.8472 64.3193 55.5833 65.0415 55.5833C65.7637 55.5833 66.3887 55.8472 66.9165 56.375C67.4165 56.9028 67.6665 57.5278 67.6665 58.25C67.6665 58.9722 67.4026 59.5972 66.8748 60.125L55.8748 71.125C55.6248 71.375 55.3332 71.5694 54.9998 71.7083C54.6665 71.8472 54.3332 71.9167 53.9998 71.9167C53.6665 71.9167 53.3332 71.8472 52.9998 71.7083C52.6665 71.5694 52.3748 71.375 52.1248 71.125L41.0832 60.0833C40.5554 59.5556 40.2915 58.9375 40.2915 58.2292C40.2915 57.5208 40.5554 56.9028 41.0832 56.375C41.6109 55.8472 42.2359 55.5833 42.9582 55.5833C43.6804 55.5833 44.3054 55.8472 44.8332 56.375L51.3748 62.9167Z" fill="#390083"/>
</g>
</svg>
