<svg width="108" height="108" viewBox="0 0 108 108" fill="none" xmlns="http://www.w3.org/2000/svg">
  <path
    d="M43.4845 70.0953C44.8216 72.2154 46.1825 74.3648 47.9904 76.0483C49.7983 77.736 52.1403 78.9283 54.5417 78.773C56.6502 78.6344 58.6045 77.4673 60.1474 75.9434C61.6903 74.4194 62.889 72.5428 64.0679 70.683C67.2565 65.662 70.449 60.6409 73.6376 55.6157C75.1528 53.2311 76.7075 50.7416 77.1268 47.8994C77.6332 44.4653 76.2684 40.9682 73.8473 38.6843C71.3154 36.2956 67.2129 36.4887 64.1312 37.1436C60.7527 37.8615 57.4494 39.2133 54.0036 39.2091C51.0524 39.2091 48.2001 38.2099 45.328 37.4837C42.4598 36.7616 39.378 36.3166 36.6088 37.3913C33.171 38.7221 30.7024 42.5047 30.7697 46.388C30.8329 49.9313 34.6149 56.0439 34.6149 56.0439C34.6149 56.0439 40.5285 65.4111 43.4845 70.0953Z"
    fill="#B28CFF" />
  <path
    d="M52.5562 59.8166V50.5812C52.5562 50.184 52.6976 49.8441 52.9802 49.5614C53.2628 49.2788 53.6028 49.1375 54 49.1375C54.3972 49.1375 54.7371 49.2788 55.0198 49.5614C55.3024 49.8441 55.4437 50.184 55.4437 50.5812V59.8166L59.0417 56.2187C59.3319 55.9284 59.6757 55.7833 60.0729 55.7833C60.4701 55.7833 60.8139 55.9284 61.1042 56.2187C61.3792 56.509 61.5167 56.8527 61.5167 57.25C61.5167 57.6472 61.3715 57.9909 61.0812 58.2812L55.0312 64.3312C54.8937 64.4687 54.7333 64.5757 54.55 64.652C54.3667 64.7284 54.1833 64.7666 54 64.7666C53.8167 64.7666 53.6333 64.7284 53.45 64.652C53.2667 64.5757 53.1062 64.4687 52.9687 64.3312L46.8958 58.2583C46.6055 57.968 46.4604 57.6281 46.4604 57.2385C46.4604 56.8489 46.6055 56.509 46.8958 56.2187C47.1861 55.9284 47.5298 55.7833 47.9271 55.7833C48.3243 55.7833 48.668 55.9284 48.9583 56.2187L52.5562 59.8166Z"
    fill="#390083" />
</svg>
