<svg width="108" height="108" viewBox="0 0 108 108" fill="none" xmlns="http://www.w3.org/2000/svg">
  <path fill-rule="evenodd" clip-rule="evenodd"
    d="M64.1312 37.1436C67.213 36.4887 71.3154 36.2956 73.8473 38.6843C76.2684 40.9682 77.6332 44.4653 77.1268 47.8994C76.7075 50.7416 75.1527 53.2312 73.6376 55.6157C70.449 60.641 67.2563 65.6621 64.0677 70.6831C62.8889 72.5429 61.6902 74.4195 60.1473 75.9434C58.6045 77.4673 56.6502 78.6344 54.5416 78.773C52.1403 78.9283 49.7983 77.736 47.9904 76.0484C46.1825 74.3649 44.8216 72.2153 43.4845 70.0952C40.5286 65.411 34.6149 56.044 34.6149 56.044C34.6038 56.0261 30.8329 49.9263 30.7697 46.3882C30.7024 42.5049 33.171 38.7222 36.6088 37.3914C39.378 36.3166 42.4599 36.7616 45.328 37.4837C48.2001 38.2099 51.0523 39.2092 54.0035 39.2092C57.4493 39.2134 60.7527 37.8615 64.1312 37.1436ZM53.9999 49.1375C53.6027 49.1375 53.2627 49.2789 52.9801 49.5615C52.6975 49.8442 52.5563 50.1841 52.5563 50.5813V59.8167L48.9584 56.2188C48.6681 55.9285 48.3243 55.7835 47.9271 55.7835C47.5299 55.7835 47.1861 55.9285 46.8959 56.2188C46.6056 56.509 46.4603 56.849 46.4603 57.2385C46.4603 57.6281 46.6056 57.968 46.8959 58.2583L52.9686 64.3313C53.1061 64.4688 53.2667 64.5757 53.4501 64.6521C53.6333 64.7285 53.8166 64.7666 53.9999 64.7666C54.1832 64.7666 54.3666 64.7285 54.5499 64.6521C54.7332 64.5757 54.8936 64.4688 55.0311 64.3313L61.0812 58.2813C61.3715 57.991 61.5167 57.6472 61.5167 57.25C61.5167 56.8528 61.3791 56.509 61.1041 56.2188C60.8138 55.9285 60.4701 55.7835 60.0729 55.7835C59.6757 55.7835 59.3319 55.9285 59.0416 56.2188L55.4437 59.8167V50.5813C55.4437 50.1841 55.3023 49.8442 55.0197 49.5615C54.737 49.2789 54.3971 49.1375 53.9999 49.1375Z"
    fill="#005320" />
</svg>
